
<global>
amp_veltrack=0
ampeg_attack=0.001
ampeg_release=1.25
</global>

<group>
color=red
group_label=Main_Hits_RR1
seq_length=8
seq_position=1

<region>
hivel=25
key=D3
lovel=0
offset=3172
sample=SnareLine_SnaresOff_Sticks_Hits_P_D3_RR1.opus
</region>

<region>
hivel=50
key=D3
lovel=26
offset=2640
sample=SnareLine_SnaresOff_Sticks_Hits_MP_D3_RR1.opus
</region>

<region>
hivel=75
key=D3
lovel=51
offset=1584
sample=SnareLine_SnaresOff_Sticks_Hits_MF_D3_RR1.opus
</region>

<region>
hivel=127
key=D3
lovel=101
offset=1722
sample=SnareLine_SnaresOff_Sticks_Hits_FF_D3_RR1.opus
</region>

<region>
hivel=100
key=D3
lovel=76
offset=1638
sample=SnareLine_SnaresOff_Sticks_Hits_F_D3_RR1.opus
</region>

<region>
hivel=25
key=D#3
lovel=0
offset=2743
sample=SnareLine_SnaresOff_Sticks_Halfway_Hits_P_D3_RR1.opus
</region>

<region>
hivel=50
key=D#3
lovel=26
offset=3742
sample=SnareLine_SnaresOff_Sticks_Halfway_Hits_MP_D3_RR1.opus
</region>

<region>
hivel=75
key=D#3
lovel=51
offset=1677
sample=SnareLine_SnaresOff_Sticks_Halfway_Hits_MF_D3_RR1.opus
</region>

<region>
hivel=127
key=D#3
lovel=101
offset=1711
sample=SnareLine_SnaresOff_Sticks_Halfway_Hits_FF_D3_RR1.opus
</region>

<region>
hivel=100
key=D#3
lovel=76
offset=1309
sample=SnareLine_SnaresOff_Sticks_Halfway_Hits_F_D3_RR1.opus
</region>

<region>
hivel=25
key=E3
lovel=0
offset=2438
sample=SnareLine_SnaresOff_Sticks_Edge_Hits_P_D3_RR1.opus
</region>

<region>
hivel=50
key=E3
lovel=26
offset=2810
sample=SnareLine_SnaresOff_Sticks_Edge_Hits_MP_D3_RR1.opus
</region>

<region>
hivel=75
key=E3
lovel=51
offset=2156
sample=SnareLine_SnaresOff_Sticks_Edge_Hits_MF_D3_RR1.opus
</region>

<region>
hivel=127
key=E3
lovel=101
offset=1354
sample=SnareLine_SnaresOff_Sticks_Edge_Hits_FF_D3_RR1.opus
</region>

<region>
hivel=100
key=E3
lovel=76
offset=2243
sample=SnareLine_SnaresOff_Sticks_Edge_Hits_F_D3_RR1.opus
</region>
</group>

<group>
color=red
group_label=Main_Hits_RR2
seq_length=8
seq_position=2

<region>
hivel=25
key=D3
lovel=0
offset=2066
sample=SnareLine_SnaresOff_Sticks_Hits_P_D3_RR2.opus
</region>

<region>
hivel=50
key=D3
lovel=26
offset=2596
sample=SnareLine_SnaresOff_Sticks_Hits_MP_D3_RR2.opus
</region>

<region>
hivel=75
key=D3
lovel=51
offset=1921
sample=SnareLine_SnaresOff_Sticks_Hits_MF_D3_RR2.opus
</region>

<region>
hivel=127
key=D3
lovel=101
offset=581
sample=SnareLine_SnaresOff_Sticks_Hits_FF_D3_RR2.opus
</region>

<region>
hivel=100
key=D3
lovel=76
offset=1572
sample=SnareLine_SnaresOff_Sticks_Hits_F_D3_RR2.opus
</region>

<region>
hivel=25
key=D#3
lovel=0
offset=2805
sample=SnareLine_SnaresOff_Sticks_Halfway_Hits_P_D3_RR2.opus
</region>

<region>
hivel=50
key=D#3
lovel=26
offset=3407
sample=SnareLine_SnaresOff_Sticks_Halfway_Hits_MP_D3_RR2.opus
</region>

<region>
hivel=75
key=D#3
lovel=51
offset=702
sample=SnareLine_SnaresOff_Sticks_Halfway_Hits_MF_D3_RR2.opus
</region>

<region>
hivel=127
key=D#3
lovel=101
offset=1471
sample=SnareLine_SnaresOff_Sticks_Halfway_Hits_FF_D3_RR2.opus
</region>

<region>
hivel=100
key=D#3
lovel=76
offset=1865
sample=SnareLine_SnaresOff_Sticks_Halfway_Hits_F_D3_RR2.opus
</region>

<region>
hivel=25
key=E3
lovel=0
offset=3236
sample=SnareLine_SnaresOff_Sticks_Edge_Hits_P_D3_RR2.opus
</region>

<region>
hivel=50
key=E3
lovel=26
offset=3051
sample=SnareLine_SnaresOff_Sticks_Edge_Hits_MP_D3_RR2.opus
</region>

<region>
hivel=75
key=E3
lovel=51
offset=1571
sample=SnareLine_SnaresOff_Sticks_Edge_Hits_MF_D3_RR2.opus
</region>

<region>
hivel=127
key=E3
lovel=101
offset=1898
sample=SnareLine_SnaresOff_Sticks_Edge_Hits_FF_D3_RR2.opus
</region>

<region>
hivel=100
key=E3
lovel=76
offset=1444
sample=SnareLine_SnaresOff_Sticks_Edge_Hits_F_D3_RR2.opus
</region>
</group>

<group>
color=red
group_label=Main_Hits_RR3
seq_length=8
seq_position=3

<region>
hivel=25
key=D3
lovel=0
offset=2301
sample=SnareLine_SnaresOff_Sticks_Hits_P_D3_RR3.opus
</region>

<region>
hivel=50
key=D3
lovel=26
offset=2378
sample=SnareLine_SnaresOff_Sticks_Hits_MP_D3_RR3.opus
</region>

<region>
hivel=75
key=D3
lovel=51
offset=1649
sample=SnareLine_SnaresOff_Sticks_Hits_MF_D3_RR3.opus
</region>

<region>
hivel=127
key=D3
lovel=101
offset=1649
sample=SnareLine_SnaresOff_Sticks_Hits_FF_D3_RR3.opus
</region>

<region>
hivel=100
key=D3
lovel=76
offset=2012
sample=SnareLine_SnaresOff_Sticks_Hits_F_D3_RR3.opus
</region>

<region>
hivel=25
key=D#3
lovel=0
offset=3124
sample=SnareLine_SnaresOff_Sticks_Halfway_Hits_P_D3_RR3.opus
</region>

<region>
hivel=50
key=D#3
lovel=26
offset=2459
sample=SnareLine_SnaresOff_Sticks_Halfway_Hits_MP_D3_RR3.opus
</region>

<region>
hivel=75
key=D#3
lovel=51
offset=1537
sample=SnareLine_SnaresOff_Sticks_Halfway_Hits_MF_D3_RR3.opus
</region>

<region>
hivel=127
key=D#3
lovel=101
offset=576
sample=SnareLine_SnaresOff_Sticks_Halfway_Hits_FF_D3_RR3.opus
</region>

<region>
hivel=100
key=D#3
lovel=76
offset=1764
sample=SnareLine_SnaresOff_Sticks_Halfway_Hits_F_D3_RR3.opus
</region>

<region>
hivel=25
key=E3
lovel=0
offset=5634
sample=SnareLine_SnaresOff_Sticks_Edge_Hits_P_D3_RR3.opus
</region>

<region>
hivel=50
key=E3
lovel=26
offset=1962
sample=SnareLine_SnaresOff_Sticks_Edge_Hits_MP_D3_RR3.opus
</region>

<region>
hivel=75
key=E3
lovel=51
offset=1619
sample=SnareLine_SnaresOff_Sticks_Edge_Hits_MF_D3_RR3.opus
</region>

<region>
hivel=127
key=E3
lovel=101
offset=2045
sample=SnareLine_SnaresOff_Sticks_Edge_Hits_FF_D3_RR3.opus
</region>

<region>
hivel=100
key=E3
lovel=76
offset=1139
sample=SnareLine_SnaresOff_Sticks_Edge_Hits_F_D3_RR3.opus
</region>
</group>

<group>
color=red
group_label=Main_Hits_RR4
seq_length=8
seq_position=4

<region>
hivel=25
key=D3
lovel=0
offset=3134
sample=SnareLine_SnaresOff_Sticks_Hits_P_D3_RR4.opus
</region>

<region>
hivel=50
key=D3
lovel=26
offset=2079
sample=SnareLine_SnaresOff_Sticks_Hits_MP_D3_RR4.opus
</region>

<region>
hivel=75
key=D3
lovel=51
offset=2381
sample=SnareLine_SnaresOff_Sticks_Hits_MF_D3_RR4.opus
</region>

<region>
hivel=127
key=D3
lovel=101
offset=1814
sample=SnareLine_SnaresOff_Sticks_Hits_FF_D3_RR4.opus
</region>

<region>
hivel=100
key=D3
lovel=76
offset=1992
sample=SnareLine_SnaresOff_Sticks_Hits_F_D3_RR4.opus
</region>

<region>
hivel=25
key=D#3
lovel=0
offset=2693
sample=SnareLine_SnaresOff_Sticks_Halfway_Hits_P_D3_RR4.opus
</region>

<region>
hivel=50
key=D#3
lovel=26
offset=2715
sample=SnareLine_SnaresOff_Sticks_Halfway_Hits_MP_D3_RR4.opus
</region>

<region>
hivel=75
key=D#3
lovel=51
offset=2266
sample=SnareLine_SnaresOff_Sticks_Halfway_Hits_MF_D3_RR4.opus
</region>

<region>
hivel=127
key=D#3
lovel=101
offset=1688
sample=SnareLine_SnaresOff_Sticks_Halfway_Hits_FF_D3_RR4.opus
</region>

<region>
hivel=100
key=D#3
lovel=76
offset=2776
sample=SnareLine_SnaresOff_Sticks_Halfway_Hits_F_D3_RR4.opus
</region>

<region>
hivel=25
key=E3
lovel=0
offset=5427
sample=SnareLine_SnaresOff_Sticks_Edge_Hits_P_D3_RR4.opus
</region>

<region>
hivel=50
key=E3
lovel=26
offset=3019
sample=SnareLine_SnaresOff_Sticks_Edge_Hits_MP_D3_RR4.opus
</region>

<region>
hivel=75
key=E3
lovel=51
offset=1832
sample=SnareLine_SnaresOff_Sticks_Edge_Hits_MF_D3_RR4.opus
</region>

<region>
hivel=127
key=E3
lovel=101
offset=1692
sample=SnareLine_SnaresOff_Sticks_Edge_Hits_FF_D3_RR4.opus
</region>

<region>
hivel=100
key=E3
lovel=76
offset=1416
sample=SnareLine_SnaresOff_Sticks_Edge_Hits_F_D3_RR4.opus
</region>
</group>

<group>
color=red
group_label=Main_Hits_RR5
seq_length=8
seq_position=5

<region>
hivel=25
key=D3
lovel=0
offset=5895
sample=SnareLine_SnaresOff_Sticks_Hits_P_D3_RR5.opus
</region>

<region>
hivel=50
key=D3
lovel=26
offset=1995
sample=SnareLine_SnaresOff_Sticks_Hits_MP_D3_RR5.opus
</region>

<region>
hivel=75
key=D3
lovel=51
offset=1804
sample=SnareLine_SnaresOff_Sticks_Hits_MF_D3_RR5.opus
</region>

<region>
hivel=127
key=D3
lovel=101
offset=1347
sample=SnareLine_SnaresOff_Sticks_Hits_FF_D3_RR5.opus
</region>

<region>
hivel=100
key=D3
lovel=76
offset=1545
sample=SnareLine_SnaresOff_Sticks_Hits_F_D3_RR5.opus
</region>

<region>
hivel=25
key=D#3
lovel=0
offset=2632
sample=SnareLine_SnaresOff_Sticks_Halfway_Hits_P_D3_RR5.opus
</region>

<region>
hivel=50
key=D#3
lovel=26
offset=2969
sample=SnareLine_SnaresOff_Sticks_Halfway_Hits_MP_D3_RR5.opus
</region>

<region>
hivel=75
key=D#3
lovel=51
offset=2201
sample=SnareLine_SnaresOff_Sticks_Halfway_Hits_MF_D3_RR5.opus
</region>

<region>
hivel=127
key=D#3
lovel=101
offset=2826
sample=SnareLine_SnaresOff_Sticks_Halfway_Hits_FF_D3_RR5.opus
</region>

<region>
hivel=100
key=D#3
lovel=76
offset=1812
sample=SnareLine_SnaresOff_Sticks_Halfway_Hits_F_D3_RR5.opus
</region>

<region>
hivel=25
key=E3
lovel=0
offset=3651
sample=SnareLine_SnaresOff_Sticks_Edge_Hits_P_D3_RR5.opus
</region>

<region>
hivel=50
key=E3
lovel=26
offset=762
sample=SnareLine_SnaresOff_Sticks_Edge_Hits_MP_D3_RR5.opus
</region>

<region>
hivel=75
key=E3
lovel=51
offset=1818
sample=SnareLine_SnaresOff_Sticks_Edge_Hits_MF_D3_RR5.opus
</region>

<region>
hivel=127
key=E3
lovel=101
offset=2393
sample=SnareLine_SnaresOff_Sticks_Edge_Hits_FF_D3_RR5.opus
</region>

<region>
hivel=100
key=E3
lovel=76
offset=2081
sample=SnareLine_SnaresOff_Sticks_Edge_Hits_F_D3_RR5.opus
</region>
</group>

<group>
color=red
group_label=Main_Hits_RR6
seq_length=8
seq_position=6

<region>
hivel=25
key=D3
lovel=0
offset=1955
sample=SnareLine_SnaresOff_Sticks_Hits_P_D3_RR6.opus
</region>

<region>
hivel=50
key=D3
lovel=26
offset=1977
sample=SnareLine_SnaresOff_Sticks_Hits_MP_D3_RR6.opus
</region>

<region>
hivel=75
key=D3
lovel=51
offset=1821
sample=SnareLine_SnaresOff_Sticks_Hits_MF_D3_RR6.opus
</region>

<region>
hivel=127
key=D3
lovel=101
offset=2010
sample=SnareLine_SnaresOff_Sticks_Hits_FF_D3_RR6.opus
</region>

<region>
hivel=100
key=D3
lovel=76
offset=690
sample=SnareLine_SnaresOff_Sticks_Hits_F_D3_RR6.opus
</region>

<region>
hivel=25
key=D#3
lovel=0
offset=2750
sample=SnareLine_SnaresOff_Sticks_Halfway_Hits_P_D3_RR6.opus
</region>

<region>
hivel=50
key=D#3
lovel=26
offset=2949
sample=SnareLine_SnaresOff_Sticks_Halfway_Hits_MP_D3_RR6.opus
</region>

<region>
hivel=75
key=D#3
lovel=51
offset=1672
sample=SnareLine_SnaresOff_Sticks_Halfway_Hits_MF_D3_RR6.opus
</region>

<region>
hivel=127
key=D#3
lovel=101
offset=1336
sample=SnareLine_SnaresOff_Sticks_Halfway_Hits_FF_D3_RR6.opus
</region>

<region>
hivel=100
key=D#3
lovel=76
offset=2389
sample=SnareLine_SnaresOff_Sticks_Halfway_Hits_F_D3_RR6.opus
</region>

<region>
hivel=25
key=E3
lovel=0
offset=4962
sample=SnareLine_SnaresOff_Sticks_Edge_Hits_P_D3_RR6.opus
</region>

<region>
hivel=50
key=E3
lovel=26
offset=2384
sample=SnareLine_SnaresOff_Sticks_Edge_Hits_MP_D3_RR6.opus
</region>

<region>
hivel=75
key=E3
lovel=51
offset=1933
sample=SnareLine_SnaresOff_Sticks_Edge_Hits_MF_D3_RR6.opus
</region>

<region>
hivel=127
key=E3
lovel=101
offset=2147
sample=SnareLine_SnaresOff_Sticks_Edge_Hits_FF_D3_RR6.opus
</region>

<region>
hivel=100
key=E3
lovel=76
offset=1230
sample=SnareLine_SnaresOff_Sticks_Edge_Hits_F_D3_RR6.opus
</region>
</group>

<group>
color=red
group_label=Main_Hits_RR7
seq_length=8
seq_position=7

<region>
hivel=25
key=D3
lovel=0
offset=2513
sample=SnareLine_SnaresOff_Sticks_Hits_P_D3_RR7.opus
</region>

<region>
hivel=50
key=D3
lovel=26
offset=1812
sample=SnareLine_SnaresOff_Sticks_Hits_MP_D3_RR7.opus
</region>

<region>
hivel=75
key=D3
lovel=51
offset=2282
sample=SnareLine_SnaresOff_Sticks_Hits_MF_D3_RR7.opus
</region>

<region>
hivel=127
key=D3
lovel=101
offset=1458
sample=SnareLine_SnaresOff_Sticks_Hits_FF_D3_RR7.opus
</region>

<region>
hivel=100
key=D3
lovel=76
offset=1877
sample=SnareLine_SnaresOff_Sticks_Hits_F_D3_RR7.opus
</region>

<region>
hivel=25
key=D#3
lovel=0
offset=2556
sample=SnareLine_SnaresOff_Sticks_Halfway_Hits_P_D3_RR7.opus
</region>

<region>
hivel=50
key=D#3
lovel=26
offset=2564
sample=SnareLine_SnaresOff_Sticks_Halfway_Hits_MP_D3_RR7.opus
</region>

<region>
hivel=75
key=D#3
lovel=51
offset=1998
sample=SnareLine_SnaresOff_Sticks_Halfway_Hits_MF_D3_RR7.opus
</region>

<region>
hivel=127
key=D#3
lovel=101
offset=1207
sample=SnareLine_SnaresOff_Sticks_Halfway_Hits_FF_D3_RR7.opus
</region>

<region>
hivel=100
key=D#3
lovel=76
offset=1909
sample=SnareLine_SnaresOff_Sticks_Halfway_Hits_F_D3_RR7.opus
</region>

<region>
hivel=25
key=E3
lovel=0
offset=3880
sample=SnareLine_SnaresOff_Sticks_Edge_Hits_P_D3_RR7.opus
</region>

<region>
hivel=50
key=E3
lovel=26
offset=2163
sample=SnareLine_SnaresOff_Sticks_Edge_Hits_MP_D3_RR7.opus
</region>

<region>
hivel=75
key=E3
lovel=51
offset=1877
sample=SnareLine_SnaresOff_Sticks_Edge_Hits_MF_D3_RR7.opus
</region>

<region>
hivel=127
key=E3
lovel=101
offset=1851
sample=SnareLine_SnaresOff_Sticks_Edge_Hits_FF_D3_RR7.opus
</region>

<region>
hivel=100
key=E3
lovel=76
offset=1878
sample=SnareLine_SnaresOff_Sticks_Edge_Hits_F_D3_RR7.opus
</region>
</group>

<group>
color=red
group_label=Main_Hits_RR8
seq_length=8
seq_position=8

<region>
hivel=25
key=D3
lovel=0
offset=2815
sample=SnareLine_SnaresOff_Sticks_Hits_P_D3_RR8.opus
</region>

<region>
hivel=50
key=D3
lovel=26
offset=2558
sample=SnareLine_SnaresOff_Sticks_Hits_MP_D3_RR8.opus
</region>

<region>
hivel=75
key=D3
lovel=51
offset=2117
sample=SnareLine_SnaresOff_Sticks_Hits_MF_D3_RR8.opus
</region>

<region>
hivel=127
key=D3
lovel=101
offset=1484
sample=SnareLine_SnaresOff_Sticks_Hits_FF_D3_RR8.opus
</region>

<region>
hivel=100
key=D3
lovel=76
offset=1489
sample=SnareLine_SnaresOff_Sticks_Hits_F_D3_RR8.opus
</region>

<region>
hivel=25
key=D#3
lovel=0
offset=2473
sample=SnareLine_SnaresOff_Sticks_Halfway_Hits_P_D3_RR8.opus
</region>

<region>
hivel=50
key=D#3
lovel=26
offset=3263
sample=SnareLine_SnaresOff_Sticks_Halfway_Hits_MP_D3_RR8.opus
</region>

<region>
hivel=75
key=D#3
lovel=51
offset=3272
sample=SnareLine_SnaresOff_Sticks_Halfway_Hits_MF_D3_RR8.opus
</region>

<region>
hivel=127
key=D#3
lovel=101
offset=3349
sample=SnareLine_SnaresOff_Sticks_Halfway_Hits_FF_D3_RR8.opus
</region>

<region>
hivel=100
key=D#3
lovel=76
offset=1674
sample=SnareLine_SnaresOff_Sticks_Halfway_Hits_F_D3_RR8.opus
</region>

<region>
hivel=25
key=E3
lovel=0
offset=5307
sample=SnareLine_SnaresOff_Sticks_Edge_Hits_P_D3_RR8.opus
</region>

<region>
hivel=50
key=E3
lovel=26
offset=2677
sample=SnareLine_SnaresOff_Sticks_Edge_Hits_MP_D3_RR8.opus
</region>

<region>
hivel=75
key=E3
lovel=51
offset=1706
sample=SnareLine_SnaresOff_Sticks_Edge_Hits_MF_D3_RR8.opus
</region>

<region>
hivel=127
key=E3
lovel=101
offset=2193
sample=SnareLine_SnaresOff_Sticks_Edge_Hits_FF_D3_RR8.opus
</region>

<region>
hivel=100
key=E3
lovel=76
offset=2295
sample=SnareLine_SnaresOff_Sticks_Edge_Hits_F_D3_RR8.opus
</region>
</group>

<group>
color=green
group_label=Alt_Hits_RR1
seq_length=4
seq_position=1

<region>
hivel=25
key=D4
lovel=0
offset=4295
sample=SnareLine_SnaresOff_Sticks_Rim_Hit_P_D3_RR1.opus
</region>

<region>
hivel=50
key=D4
lovel=26
offset=863
sample=SnareLine_SnaresOff_Sticks_Rim_Hit_MP_D3_RR1.opus
</region>

<region>
hivel=75
key=D4
lovel=51
offset=797
sample=SnareLine_SnaresOff_Sticks_Rim_Hit_MF_D3_RR1.opus
</region>

<region>
hivel=127
key=D4
lovel=101
offset=750
sample=SnareLine_SnaresOff_Sticks_Rim_Hit_FF_D3_RR1.opus
</region>

<region>
hivel=25
key=E4
lovel=0
offset=2665
sample=SnareLine_SnaresOff_Sticks_Buzz_Stroke_P_D3_RR1.opus
</region>

<region>
hivel=75
key=E4
lovel=26
offset=3838
sample=SnareLine_SnaresOff_Sticks_Buzz_Stroke_MP_D3_RR1.opus
</region>

<region>
hivel=127
key=E4
lovel=76
offset=2207
sample=SnareLine_SnaresOff_Sticks_Buzz_Stroke_F_D3_RR1.opus
</region>

<region>
hivel=25
key=F4
lovel=0
offset=3509
sample=SnareLine_SnaresOff_Sticks_Dry_Buzz_Stroke_P_D3_RR1.opus
</region>

<region>
hivel=75
key=F4
lovel=26
offset=3205
sample=SnareLine_SnaresOff_Sticks_Dry_Buzz_Stroke_MP_D3_RR1.opus
</region>

<region>
hivel=127
key=F4
lovel=76
offset=2389
sample=SnareLine_SnaresOff_Sticks_Dry_Buzz_Stroke_F_D3_RR1.opus
</region>

<region>
hivel=50
key=F#4
lovel=26
offset=763
sample=SnareLine_SnaresOff_Sticks_Edge_Buzz_Stroke_MP_D3_RR1.opus
</region>

<region>
hivel=75
key=F#4
lovel=51
offset=744
sample=SnareLine_SnaresOff_Sticks_Edge_Buzz_Stroke_MF_D3_RR1.opus
</region>

<region>
hivel=127
key=F#4
lovel=101
offset=602
sample=SnareLine_SnaresOff_Sticks_Edge_Buzz_Stroke_FF_D3_RR1.opus
</region>

<region>
hivel=100
key=F#4
lovel=76
offset=717
sample=SnareLine_SnaresOff_Sticks_Edge_Buzz_Stroke_F_D3_RR1.opus
</region>

<region>
hivel=25
key=G4
lovel=0
offset=4140
sample=SnareLine_SnaresOff_Sticks_Edge_Dry_Buzz_Stroke_P_D3_RR1.opus
</region>

<region>
hivel=50
key=G4
lovel=26
offset=4115
sample=SnareLine_SnaresOff_Sticks_Edge_Dry_Buzz_Stroke_MP_D3_RR1.opus
</region>

<region>
hivel=75
key=G4
lovel=51
offset=4132
sample=SnareLine_SnaresOff_Sticks_Edge_Dry_Buzz_Stroke_MF_D3_RR1.opus
</region>

<region>
hivel=127
key=G4
lovel=101
offset=2773
sample=SnareLine_SnaresOff_Sticks_Edge_Dry_Buzz_Stroke_FF_D3_RR1.opus
</region>

<region>
hivel=100
key=G4
lovel=76
offset=4241
sample=SnareLine_SnaresOff_Sticks_Edge_Dry_Buzz_Stroke_F_D3_RR1.opus
</region>

<region>
hivel=25
key=G#4
lovel=0
offset=1642
sample=SnareLine_SnaresOff_Sticks_Halfway_Buzz_Stroke_P_D3_RR1.opus
</region>

<region>
hivel=50
key=G#4
lovel=26
offset=2442
sample=SnareLine_SnaresOff_Sticks_Halfway_Buzz_Stroke_MP_D3_RR1.opus
</region>

<region>
hivel=75
key=G#4
lovel=51
offset=2138
sample=SnareLine_SnaresOff_Sticks_Halfway_Buzz_Stroke_MF_D3_RR1.opus
</region>

<region>
hivel=127
key=G#4
lovel=101
offset=1627
sample=SnareLine_SnaresOff_Sticks_Halfway_Buzz_Stroke_FF_D3_RR1.opus
</region>

<region>
hivel=100
key=G#4
lovel=76
offset=2188
sample=SnareLine_SnaresOff_Sticks_Halfway_Buzz_Stroke_F_D3_RR1.opus
</region>

<region>
hivel=25
key=A4
lovel=0
offset=4502
sample=SnareLine_SnaresOff_Sticks_Halfway_Dry_Buzz_Stroke_P_D3_RR1.opus
</region>

<region>
hivel=50
key=A4
lovel=26
offset=4608
sample=SnareLine_SnaresOff_Sticks_Halfway_Dry_Buzz_Stroke_MP_D3_RR1.opus
</region>

<region>
hivel=75
key=A4
lovel=51
offset=4453
sample=SnareLine_SnaresOff_Sticks_Halfway_Dry_Buzz_Stroke_MF_D3_RR1.opus
</region>

<region>
hivel=127
key=A4
lovel=101
offset=4575
sample=SnareLine_SnaresOff_Sticks_Halfway_Dry_Buzz_Stroke_FF_D3_RR1.opus
</region>

<region>
hivel=100
key=A4
lovel=76
offset=4104
sample=SnareLine_SnaresOff_Sticks_Halfway_Dry_Buzz_Stroke_F_D3_RR1.opus
</region>

<region>
hivel=25
key=D5
lovel=0
offset=2023
sample=SnareLine_SnaresOff_Sticks_Stick_Shot_P_D3_RR1.opus
</region>

<region>
hivel=50
key=D5
lovel=26
offset=3230
sample=SnareLine_SnaresOff_Sticks_Stick_Shot_MP_D3_RR1.opus
</region>

<region>
hivel=127
key=D5
lovel=101
offset=584
sample=SnareLine_SnaresOff_Sticks_Stick_Shot_FF_D3_RR1.opus
</region>

<region>
hivel=100
key=D5
lovel=76
offset=4282
sample=SnareLine_SnaresOff_Sticks_Stick_Shot_F_D3_RR1.opus
</region>

<region>
hivel=25
key=D#5
lovel=0
offset=5061
sample=SnareLine_SnaresOff_Sticks_Rim_Knock_P_D3_RR1.opus
</region>

<region>
hivel=75
key=D#5
lovel=51
offset=2565
sample=SnareLine_SnaresOff_Sticks_Rim_Knock_MF_D3_RR1.opus
</region>

<region>
hivel=127
key=D#5
lovel=101
offset=2305
sample=SnareLine_SnaresOff_Sticks_Rim_Knock_FF_D3_RR1.opus
</region>

<region>
hivel=25
key=E5
lovel=0
offset=1980
sample=SnareLine_SnaresOff_Sticks_Ping_Shot_P_D3_RR1.opus
</region>

<region>
hivel=50
key=E5
lovel=26
offset=706
sample=SnareLine_SnaresOff_Sticks_Ping_Shot_MP_D3_RR1.opus
</region>

<region>
hivel=75
key=E5
lovel=51
offset=1111
sample=SnareLine_SnaresOff_Sticks_Ping_Shot_MF_D3_RR1.opus
</region>

<region>
hivel=127
key=E5
lovel=101
offset=1340
sample=SnareLine_SnaresOff_Sticks_Ping_Shot_FF_D3_RR1.opus
</region>

<region>
hivel=100
key=E5
lovel=76
offset=1653
sample=SnareLine_SnaresOff_Sticks_Ping_Shot_F_D3_RR1.opus
</region>

<region>
hivel=25
key=F5
lovel=0
offset=1915
sample=SnareLine_SnaresOff_Sticks_Shoulder_Shot_P_D3_RR1.opus
</region>

<region>
hivel=75
key=F5
lovel=51
offset=2448
sample=SnareLine_SnaresOff_Sticks_Shoulder_Shot_MF_D3_RR1.opus
</region>

<region>
hivel=127
key=F5
lovel=101
offset=1463
sample=SnareLine_SnaresOff_Sticks_Shoulder_Shot_FF_D3_RR1.opus
</region>

<region>
hivel=100
key=F5
lovel=76
offset=1314
sample=SnareLine_SnaresOff_Sticks_Shoulder_Shot_F_D3_RR1.opus
</region>

<region>
hivel=25
key=F#5
lovel=0
offset=1575
sample=SnareLine_SnaresOff_Sticks_Gok_Shot_P_D3_RR1.opus
</region>

<region>
hivel=50
key=F#5
lovel=26
offset=1951
sample=SnareLine_SnaresOff_Sticks_Gok_Shot_MP_D3_RR1.opus
</region>

<region>
hivel=75
key=F#5
lovel=51
offset=2015
sample=SnareLine_SnaresOff_Sticks_Gok_Shot_MF_D3_RR1.opus
</region>

<region>
hivel=100
key=F#5
lovel=76
offset=1142
sample=SnareLine_SnaresOff_Sticks_Gok_Shot_F_D3_RR1.opus
</region>

<region>
hivel=75
key=D5
lovel=51
offset=2392
sample=SnareLine_SnaresOff_Sticks_Stick_Shot_MF_D3_RR3.opus
</region>

<region>
hivel=50
key=F5
lovel=26
offset=1924
sample=SnareLine_SnaresOff_Sticks_Shoulder_Shot_MP_D3_RR3.opus
</region>

<region>
hivel=50
key=D#5
lovel=26
offset=2007
sample=SnareLine_SnaresOff_Sticks_Rim_Knock_MP_D3_RR3.opus
</region>

<region>
hivel=100
key=D#5
lovel=76
offset=703
sample=SnareLine_SnaresOff_Sticks_Rim_Knock_F_D3_RR3.opus
</region>

<region>
hivel=127
key=F#5
lovel=101
offset=2216
sample=SnareLine_SnaresOff_Sticks_Gok_Shot_FF_D3_RR3.opus
</region>

<region>
hivel=25
key=F#4
lovel=0
offset=4334
sample=SnareLine_SnaresOff_Sticks_Edge_Buzz_Stroke_P_D3_RR3.opus
</region>
</group>

<group>
color=green
group_label=Alt_Hits_RR2
seq_length=4
seq_position=2

<region>
hivel=25
key=D4
lovel=0
offset=864
sample=SnareLine_SnaresOff_Sticks_Rim_Hit_P_D3_RR2.opus
</region>

<region>
hivel=50
key=D4
lovel=26
offset=747
sample=SnareLine_SnaresOff_Sticks_Rim_Hit_MP_D3_RR2.opus
</region>

<region>
hivel=75
key=D4
lovel=51
offset=821
sample=SnareLine_SnaresOff_Sticks_Rim_Hit_MF_D3_RR2.opus
</region>

<region>
hivel=127
key=D4
lovel=101
offset=725
sample=SnareLine_SnaresOff_Sticks_Rim_Hit_FF_D3_RR2.opus
</region>

<region>
hivel=100
key=D4
lovel=76
offset=714
sample=SnareLine_SnaresOff_Sticks_Rim_Hit_F_D3_RR2.opus
</region>

<region>
hivel=25
key=E4
lovel=0
offset=3118
sample=SnareLine_SnaresOff_Sticks_Buzz_Stroke_P_D3_RR2.opus
</region>

<region>
hivel=75
key=E4
lovel=26
offset=2669
sample=SnareLine_SnaresOff_Sticks_Buzz_Stroke_MP_D3_RR2.opus
</region>

<region>
hivel=127
key=E4
lovel=76
offset=2057
sample=SnareLine_SnaresOff_Sticks_Buzz_Stroke_F_D3_RR2.opus
</region>

<region>
hivel=25
key=F4
lovel=0
offset=5301
sample=SnareLine_SnaresOff_Sticks_Dry_Buzz_Stroke_P_D3_RR2.opus
</region>

<region>
hivel=75
key=F4
lovel=26
offset=2417
sample=SnareLine_SnaresOff_Sticks_Dry_Buzz_Stroke_MP_D3_RR2.opus
</region>

<region>
hivel=127
key=F4
lovel=76
offset=2617
sample=SnareLine_SnaresOff_Sticks_Dry_Buzz_Stroke_F_D3_RR2.opus
</region>

<region>
hivel=25
key=F#4
lovel=0
offset=4553
sample=SnareLine_SnaresOff_Sticks_Edge_Buzz_Stroke_P_D3_RR2.opus
</region>

<region>
hivel=50
key=F#4
lovel=26
offset=820
sample=SnareLine_SnaresOff_Sticks_Edge_Buzz_Stroke_MP_D3_RR2.opus
</region>

<region>
hivel=75
key=F#4
lovel=51
offset=1775
sample=SnareLine_SnaresOff_Sticks_Edge_Buzz_Stroke_MF_D3_RR2.opus
</region>

<region>
hivel=127
key=F#4
lovel=101
offset=723
sample=SnareLine_SnaresOff_Sticks_Edge_Buzz_Stroke_FF_D3_RR2.opus
</region>

<region>
hivel=100
key=F#4
lovel=76
offset=2918
sample=SnareLine_SnaresOff_Sticks_Edge_Buzz_Stroke_F_D3_RR2.opus
</region>

<region>
hivel=25
key=G4
lovel=0
offset=5691
sample=SnareLine_SnaresOff_Sticks_Edge_Dry_Buzz_Stroke_P_D3_RR2.opus
</region>

<region>
hivel=50
key=G4
lovel=26
offset=3628
sample=SnareLine_SnaresOff_Sticks_Edge_Dry_Buzz_Stroke_MP_D3_RR2.opus
</region>

<region>
hivel=75
key=G4
lovel=51
offset=4365
sample=SnareLine_SnaresOff_Sticks_Edge_Dry_Buzz_Stroke_MF_D3_RR2.opus
</region>

<region>
hivel=127
key=G4
lovel=101
offset=2899
sample=SnareLine_SnaresOff_Sticks_Edge_Dry_Buzz_Stroke_FF_D3_RR2.opus
</region>

<region>
hivel=100
key=G4
lovel=76
offset=4884
sample=SnareLine_SnaresOff_Sticks_Edge_Dry_Buzz_Stroke_F_D3_RR2.opus
</region>

<region>
hivel=25
key=G#4
lovel=0
offset=1509
sample=SnareLine_SnaresOff_Sticks_Halfway_Buzz_Stroke_P_D3_RR2.opus
</region>

<region>
hivel=50
key=G#4
lovel=26
offset=2848
sample=SnareLine_SnaresOff_Sticks_Halfway_Buzz_Stroke_MP_D3_RR2.opus
</region>

<region>
hivel=75
key=G#4
lovel=51
offset=2322
sample=SnareLine_SnaresOff_Sticks_Halfway_Buzz_Stroke_MF_D3_RR2.opus
</region>

<region>
hivel=127
key=G#4
lovel=101
offset=2545
sample=SnareLine_SnaresOff_Sticks_Halfway_Buzz_Stroke_FF_D3_RR2.opus
</region>

<region>
hivel=100
key=G#4
lovel=76
offset=2250
sample=SnareLine_SnaresOff_Sticks_Halfway_Buzz_Stroke_F_D3_RR2.opus
</region>

<region>
hivel=25
key=A4
lovel=0
offset=3579
sample=SnareLine_SnaresOff_Sticks_Halfway_Dry_Buzz_Stroke_P_D3_RR2.opus
</region>

<region>
hivel=50
key=A4
lovel=26
offset=4284
sample=SnareLine_SnaresOff_Sticks_Halfway_Dry_Buzz_Stroke_MP_D3_RR2.opus
</region>

<region>
hivel=75
key=A4
lovel=51
offset=3837
sample=SnareLine_SnaresOff_Sticks_Halfway_Dry_Buzz_Stroke_MF_D3_RR2.opus
</region>

<region>
hivel=127
key=A4
lovel=101
offset=3377
sample=SnareLine_SnaresOff_Sticks_Halfway_Dry_Buzz_Stroke_FF_D3_RR2.opus
</region>

<region>
hivel=100
key=A4
lovel=76
offset=4190
sample=SnareLine_SnaresOff_Sticks_Halfway_Dry_Buzz_Stroke_F_D3_RR2.opus
</region>

<region>
hivel=25
key=D5
lovel=0
offset=3117
sample=SnareLine_SnaresOff_Sticks_Stick_Shot_P_D3_RR2.opus
</region>

<region>
hivel=50
key=D5
lovel=26
offset=1780
sample=SnareLine_SnaresOff_Sticks_Stick_Shot_MP_D3_RR2.opus
</region>

<region>
hivel=75
key=D5
lovel=51
offset=2221
sample=SnareLine_SnaresOff_Sticks_Stick_Shot_MF_D3_RR2.opus
</region>

<region>
hivel=127
key=D5
lovel=101
offset=2522
sample=SnareLine_SnaresOff_Sticks_Stick_Shot_FF_D3_RR2.opus
</region>

<region>
hivel=100
key=D5
lovel=76
offset=1912
sample=SnareLine_SnaresOff_Sticks_Stick_Shot_F_D3_RR2.opus
</region>

<region>
hivel=25
key=D#5
lovel=0
offset=2058
sample=SnareLine_SnaresOff_Sticks_Rim_Knock_P_D3_RR2.opus
</region>

<region>
hivel=50
key=D#5
lovel=26
offset=3476
sample=SnareLine_SnaresOff_Sticks_Rim_Knock_MP_D3_RR2.opus
</region>

<region>
hivel=75
key=D#5
lovel=51
offset=2152
sample=SnareLine_SnaresOff_Sticks_Rim_Knock_MF_D3_RR2.opus
</region>

<region>
hivel=127
key=D#5
lovel=101
offset=2194
sample=SnareLine_SnaresOff_Sticks_Rim_Knock_FF_D3_RR2.opus
</region>

<region>
hivel=100
key=D#5
lovel=76
offset=752
sample=SnareLine_SnaresOff_Sticks_Rim_Knock_F_D3_RR2.opus
</region>

<region>
hivel=25
key=E5
lovel=0
offset=2245
sample=SnareLine_SnaresOff_Sticks_Ping_Shot_P_D3_RR2.opus
</region>

<region>
hivel=75
key=E5
lovel=51
offset=1439
sample=SnareLine_SnaresOff_Sticks_Ping_Shot_MF_D3_RR2.opus
</region>

<region>
hivel=127
key=E5
lovel=101
offset=1812
sample=SnareLine_SnaresOff_Sticks_Ping_Shot_FF_D3_RR2.opus
</region>

<region>
hivel=100
key=E5
lovel=76
offset=1422
sample=SnareLine_SnaresOff_Sticks_Ping_Shot_F_D3_RR2.opus
</region>

<region>
hivel=25
key=F5
lovel=0
offset=1881
sample=SnareLine_SnaresOff_Sticks_Shoulder_Shot_P_D3_RR2.opus
</region>

<region>
hivel=50
key=F5
lovel=26
offset=2544
sample=SnareLine_SnaresOff_Sticks_Shoulder_Shot_MP_D3_RR2.opus
</region>

<region>
hivel=75
key=F5
lovel=51
offset=2148
sample=SnareLine_SnaresOff_Sticks_Shoulder_Shot_MF_D3_RR2.opus
</region>

<region>
hivel=127
key=F5
lovel=101
offset=714
sample=SnareLine_SnaresOff_Sticks_Shoulder_Shot_FF_D3_RR2.opus
</region>

<region>
hivel=100
key=F5
lovel=76
offset=1491
sample=SnareLine_SnaresOff_Sticks_Shoulder_Shot_F_D3_RR2.opus
</region>

<region>
hivel=50
key=F#5
lovel=26
offset=1622
sample=SnareLine_SnaresOff_Sticks_Gok_Shot_MP_D3_RR2.opus
</region>

<region>
hivel=75
key=F#5
lovel=51
offset=1469
sample=SnareLine_SnaresOff_Sticks_Gok_Shot_MF_D3_RR2.opus
</region>

<region>
hivel=127
key=F#5
lovel=101
offset=2162
sample=SnareLine_SnaresOff_Sticks_Gok_Shot_FF_D3_RR2.opus
</region>

<region>
hivel=100
key=F#5
lovel=76
offset=1887
sample=SnareLine_SnaresOff_Sticks_Gok_Shot_F_D3_RR2.opus
</region>

<region>
hivel=50
key=E5
lovel=26
offset=1497
sample=SnareLine_SnaresOff_Sticks_Ping_Shot_MP_D3_RR4.opus
</region>

<region>
hivel=25
key=F#5
lovel=0
offset=1400
sample=SnareLine_SnaresOff_Sticks_Gok_Shot_P_D3_RR4.opus
</region>
</group>

<group>
color=green
group_label=Alt_Hits_RR3
seq_length=4
seq_position=3

<region>
hivel=25
key=D4
lovel=0
offset=864
sample=SnareLine_SnaresOff_Sticks_Rim_Hit_P_D3_RR3.opus
</region>

<region>
hivel=50
key=D4
lovel=26
offset=864
sample=SnareLine_SnaresOff_Sticks_Rim_Hit_MP_D3_RR3.opus
</region>

<region>
hivel=75
key=D4
lovel=51
offset=706
sample=SnareLine_SnaresOff_Sticks_Rim_Hit_MF_D3_RR3.opus
</region>

<region>
end=34360
hivel=127
key=D4
lovel=101
offset=633
sample=SnareLine_SnaresOff_Sticks_Rim_Hit_FF_D3_RR3.opus
</region>

<region>
hivel=100
key=D4
lovel=76
offset=628
sample=SnareLine_SnaresOff_Sticks_Rim_Hit_F_D3_RR3.opus
</region>

<region>
hivel=25
key=E4
lovel=0
offset=2775
sample=SnareLine_SnaresOff_Sticks_Buzz_Stroke_P_D3_RR3.opus
</region>

<region>
hivel=75
key=E4
lovel=26
offset=2929
sample=SnareLine_SnaresOff_Sticks_Buzz_Stroke_MP_D3_RR3.opus
</region>

<region>
hivel=127
key=E4
lovel=76
offset=2528
sample=SnareLine_SnaresOff_Sticks_Buzz_Stroke_F_D3_RR3.opus
</region>

<region>
hivel=25
key=F4
lovel=0
offset=2261
sample=SnareLine_SnaresOff_Sticks_Dry_Buzz_Stroke_P_D3_RR3.opus
</region>

<region>
hivel=75
key=F4
lovel=26
offset=2385
sample=SnareLine_SnaresOff_Sticks_Dry_Buzz_Stroke_MP_D3_RR3.opus
</region>

<region>
hivel=127
key=F4
lovel=76
offset=4011
sample=SnareLine_SnaresOff_Sticks_Dry_Buzz_Stroke_F_D3_RR3.opus
</region>

<region>
hivel=25
key=F#4
lovel=0
offset=4334
sample=SnareLine_SnaresOff_Sticks_Edge_Buzz_Stroke_P_D3_RR3.opus
</region>

<region>
hivel=50
key=F#4
lovel=26
offset=864
sample=SnareLine_SnaresOff_Sticks_Edge_Buzz_Stroke_MP_D3_RR3.opus
</region>

<region>
hivel=75
key=F#4
lovel=51
offset=3355
sample=SnareLine_SnaresOff_Sticks_Edge_Buzz_Stroke_MF_D3_RR3.opus
</region>

<region>
hivel=127
key=F#4
lovel=101
offset=676
sample=SnareLine_SnaresOff_Sticks_Edge_Buzz_Stroke_FF_D3_RR3.opus
</region>

<region>
hivel=100
key=F#4
lovel=76
offset=1844
sample=SnareLine_SnaresOff_Sticks_Edge_Buzz_Stroke_F_D3_RR3.opus
</region>

<region>
hivel=25
key=G4
lovel=0
offset=2686
sample=SnareLine_SnaresOff_Sticks_Edge_Dry_Buzz_Stroke_P_D3_RR3.opus
</region>

<region>
hivel=50
key=G4
lovel=26
offset=3040
sample=SnareLine_SnaresOff_Sticks_Edge_Dry_Buzz_Stroke_MP_D3_RR3.opus
</region>

<region>
hivel=75
key=G4
lovel=51
offset=4876
sample=SnareLine_SnaresOff_Sticks_Edge_Dry_Buzz_Stroke_MF_D3_RR3.opus
</region>

<region>
hivel=127
key=G4
lovel=101
offset=2909
sample=SnareLine_SnaresOff_Sticks_Edge_Dry_Buzz_Stroke_FF_D3_RR3.opus
</region>

<region>
hivel=100
key=G4
lovel=76
offset=4291
sample=SnareLine_SnaresOff_Sticks_Edge_Dry_Buzz_Stroke_F_D3_RR3.opus
</region>

<region>
hivel=25
key=G#4
lovel=0
offset=4278
sample=SnareLine_SnaresOff_Sticks_Halfway_Buzz_Stroke_P_D3_RR3.opus
</region>

<region>
hivel=50
key=G#4
lovel=26
offset=2671
sample=SnareLine_SnaresOff_Sticks_Halfway_Buzz_Stroke_MP_D3_RR3.opus
</region>

<region>
hivel=75
key=G#4
lovel=51
offset=1696
sample=SnareLine_SnaresOff_Sticks_Halfway_Buzz_Stroke_MF_D3_RR3.opus
</region>

<region>
hivel=127
key=G#4
lovel=101
offset=1595
sample=SnareLine_SnaresOff_Sticks_Halfway_Buzz_Stroke_FF_D3_RR3.opus
</region>

<region>
hivel=100
key=G#4
lovel=76
offset=2041
sample=SnareLine_SnaresOff_Sticks_Halfway_Buzz_Stroke_F_D3_RR3.opus
</region>

<region>
hivel=25
key=A4
lovel=0
offset=4933
sample=SnareLine_SnaresOff_Sticks_Halfway_Dry_Buzz_Stroke_P_D3_RR3.opus
</region>

<region>
hivel=50
key=A4
lovel=26
offset=4815
sample=SnareLine_SnaresOff_Sticks_Halfway_Dry_Buzz_Stroke_MP_D3_RR3.opus
</region>

<region>
hivel=75
key=A4
lovel=51
offset=4410
sample=SnareLine_SnaresOff_Sticks_Halfway_Dry_Buzz_Stroke_MF_D3_RR3.opus
</region>

<region>
hivel=127
key=A4
lovel=101
offset=4105
sample=SnareLine_SnaresOff_Sticks_Halfway_Dry_Buzz_Stroke_FF_D3_RR3.opus
</region>

<region>
hivel=100
key=A4
lovel=76
offset=4953
sample=SnareLine_SnaresOff_Sticks_Halfway_Dry_Buzz_Stroke_F_D3_RR3.opus
</region>

<region>
hivel=25
key=D5
lovel=0
offset=746
sample=SnareLine_SnaresOff_Sticks_Stick_Shot_P_D3_RR3.opus
</region>

<region>
hivel=50
key=D5
lovel=26
offset=2129
sample=SnareLine_SnaresOff_Sticks_Stick_Shot_MP_D3_RR3.opus
</region>

<region>
hivel=75
key=D5
lovel=51
offset=2392
sample=SnareLine_SnaresOff_Sticks_Stick_Shot_MF_D3_RR3.opus
</region>

<region>
hivel=127
key=D5
lovel=101
offset=2109
sample=SnareLine_SnaresOff_Sticks_Stick_Shot_FF_D3_RR3.opus
</region>

<region>
hivel=100
key=D5
lovel=76
offset=1952
sample=SnareLine_SnaresOff_Sticks_Stick_Shot_F_D3_RR3.opus
</region>

<region>
hivel=25
key=D#5
lovel=0
offset=3042
sample=SnareLine_SnaresOff_Sticks_Rim_Knock_P_D3_RR3.opus
</region>

<region>
hivel=50
key=D#5
lovel=26
offset=2007
sample=SnareLine_SnaresOff_Sticks_Rim_Knock_MP_D3_RR3.opus
</region>

<region>
hivel=75
key=D#5
lovel=51
offset=1754
sample=SnareLine_SnaresOff_Sticks_Rim_Knock_MF_D3_RR3.opus
</region>

<region>
hivel=127
key=D#5
lovel=101
offset=1415
sample=SnareLine_SnaresOff_Sticks_Rim_Knock_FF_D3_RR3.opus
</region>

<region>
hivel=100
key=D#5
lovel=76
offset=703
sample=SnareLine_SnaresOff_Sticks_Rim_Knock_F_D3_RR3.opus
</region>

<region>
hivel=25
key=E5
lovel=0
offset=2339
sample=SnareLine_SnaresOff_Sticks_Ping_Shot_P_D3_RR3.opus
</region>

<region>
hivel=50
key=E5
lovel=26
offset=694
sample=SnareLine_SnaresOff_Sticks_Ping_Shot_MP_D3_RR3.opus
</region>

<region>
hivel=75
key=E5
lovel=51
offset=705
sample=SnareLine_SnaresOff_Sticks_Ping_Shot_MF_D3_RR3.opus
</region>

<region>
hivel=127
key=E5
lovel=101
offset=635
sample=SnareLine_SnaresOff_Sticks_Ping_Shot_FF_D3_RR3.opus
</region>

<region>
hivel=100
key=E5
lovel=76
offset=1819
sample=SnareLine_SnaresOff_Sticks_Ping_Shot_F_D3_RR3.opus
</region>

<region>
hivel=25
key=F5
lovel=0
offset=2113
sample=SnareLine_SnaresOff_Sticks_Shoulder_Shot_P_D3_RR3.opus
</region>

<region>
hivel=50
key=F5
lovel=26
offset=1924
sample=SnareLine_SnaresOff_Sticks_Shoulder_Shot_MP_D3_RR3.opus
</region>

<region>
hivel=75
key=F5
lovel=51
offset=2170
sample=SnareLine_SnaresOff_Sticks_Shoulder_Shot_MF_D3_RR3.opus
</region>

<region>
hivel=127
key=F5
lovel=101
offset=676
sample=SnareLine_SnaresOff_Sticks_Shoulder_Shot_FF_D3_RR3.opus
</region>

<region>
hivel=100
key=F5
lovel=76
offset=1974
sample=SnareLine_SnaresOff_Sticks_Shoulder_Shot_F_D3_RR3.opus
</region>

<region>
hivel=25
key=F#5
lovel=0
offset=1380
sample=SnareLine_SnaresOff_Sticks_Gok_Shot_P_D3_RR3.opus
</region>

<region>
hivel=50
key=F#5
lovel=26
offset=1910
sample=SnareLine_SnaresOff_Sticks_Gok_Shot_MP_D3_RR3.opus
</region>

<region>
hivel=75
key=F#5
lovel=51
offset=1511
sample=SnareLine_SnaresOff_Sticks_Gok_Shot_MF_D3_RR3.opus
</region>

<region>
hivel=127
key=F#5
lovel=101
offset=2216
sample=SnareLine_SnaresOff_Sticks_Gok_Shot_FF_D3_RR3.opus
</region>

<region>
hivel=100
key=F#5
lovel=76
offset=2707
sample=SnareLine_SnaresOff_Sticks_Gok_Shot_F_D3_RR3.opus
</region>
</group>

<group>
color=green
group_label=Alt_Hits_RR4
seq_length=4
seq_position=4

<region>
hivel=25
key=D4
lovel=0
offset=2969
sample=SnareLine_SnaresOff_Sticks_Rim_Hit_P_D3_RR4.opus
</region>

<region>
hivel=50
key=D4
lovel=26
offset=832
sample=SnareLine_SnaresOff_Sticks_Rim_Hit_MP_D3_RR4.opus
</region>

<region>
hivel=75
key=D4
lovel=51
offset=707
sample=SnareLine_SnaresOff_Sticks_Rim_Hit_MF_D3_RR4.opus
</region>

<region>
hivel=127
key=D4
lovel=101
offset=747
sample=SnareLine_SnaresOff_Sticks_Rim_Hit_FF_D3_RR4.opus
</region>

<region>
hivel=100
key=D4
lovel=76
offset=812
sample=SnareLine_SnaresOff_Sticks_Rim_Hit_F_D3_RR4.opus
</region>

<region>
hivel=25
key=E4
lovel=0
offset=3886
sample=SnareLine_SnaresOff_Sticks_Buzz_Stroke_P_D3_RR4.opus
</region>

<region>
hivel=75
key=E4
lovel=26
offset=2024
sample=SnareLine_SnaresOff_Sticks_Buzz_Stroke_MP_D3_RR4.opus
</region>

<region>
hivel=127
key=E4
lovel=76
offset=2127
sample=SnareLine_SnaresOff_Sticks_Buzz_Stroke_F_D3_RR4.opus
</region>

<region>
hivel=25
key=F4
lovel=0
offset=1934
sample=SnareLine_SnaresOff_Sticks_Dry_Buzz_Stroke_P_D3_RR4.opus
</region>

<region>
hivel=75
key=F4
lovel=26
offset=2633
sample=SnareLine_SnaresOff_Sticks_Dry_Buzz_Stroke_MP_D3_RR4.opus
</region>

<region>
hivel=127
key=F4
lovel=76
offset=2906
sample=SnareLine_SnaresOff_Sticks_Dry_Buzz_Stroke_F_D3_RR4.opus
</region>

<region>
hivel=25
key=F#4
lovel=0
offset=6681
sample=SnareLine_SnaresOff_Sticks_Edge_Buzz_Stroke_P_D3_RR4.opus
</region>

<region>
hivel=50
key=F#4
lovel=26
offset=2620
sample=SnareLine_SnaresOff_Sticks_Edge_Buzz_Stroke_MP_D3_RR4.opus
</region>

<region>
hivel=75
key=F#4
lovel=51
offset=2755
sample=SnareLine_SnaresOff_Sticks_Edge_Buzz_Stroke_MF_D3_RR4.opus
</region>

<region>
hivel=127
key=F#4
lovel=101
offset=1381
sample=SnareLine_SnaresOff_Sticks_Edge_Buzz_Stroke_FF_D3_RR4.opus
</region>

<region>
hivel=100
key=F#4
lovel=76
offset=1711
sample=SnareLine_SnaresOff_Sticks_Edge_Buzz_Stroke_F_D3_RR4.opus
</region>

<region>
hivel=25
key=G4
lovel=0
offset=5643
sample=SnareLine_SnaresOff_Sticks_Edge_Dry_Buzz_Stroke_P_D3_RR4.opus
</region>

<region>
hivel=50
key=G4
lovel=26
offset=3262
sample=SnareLine_SnaresOff_Sticks_Edge_Dry_Buzz_Stroke_MP_D3_RR4.opus
</region>

<region>
hivel=75
key=G4
lovel=51
offset=4760
sample=SnareLine_SnaresOff_Sticks_Edge_Dry_Buzz_Stroke_MF_D3_RR4.opus
</region>

<region>
hivel=127
key=G4
lovel=101
offset=2706
sample=SnareLine_SnaresOff_Sticks_Edge_Dry_Buzz_Stroke_FF_D3_RR4.opus
</region>

<region>
hivel=100
key=G4
lovel=76
offset=5626
sample=SnareLine_SnaresOff_Sticks_Edge_Dry_Buzz_Stroke_F_D3_RR4.opus
</region>

<region>
hivel=25
key=G#4
lovel=0
offset=3076
sample=SnareLine_SnaresOff_Sticks_Halfway_Buzz_Stroke_P_D3_RR4.opus
</region>

<region>
hivel=50
key=G#4
lovel=26
offset=1553
sample=SnareLine_SnaresOff_Sticks_Halfway_Buzz_Stroke_MP_D3_RR4.opus
</region>

<region>
hivel=75
key=G#4
lovel=51
offset=2498
sample=SnareLine_SnaresOff_Sticks_Halfway_Buzz_Stroke_MF_D3_RR4.opus
</region>

<region>
hivel=127
key=G#4
lovel=101
offset=2104
sample=SnareLine_SnaresOff_Sticks_Halfway_Buzz_Stroke_FF_D3_RR4.opus
</region>

<region>
hivel=100
key=G#4
lovel=76
offset=1552
sample=SnareLine_SnaresOff_Sticks_Halfway_Buzz_Stroke_F_D3_RR4.opus
</region>

<region>
hivel=25
key=A4
lovel=0
offset=4434
sample=SnareLine_SnaresOff_Sticks_Halfway_Dry_Buzz_Stroke_P_D3_RR4.opus
</region>

<region>
hivel=50
key=A4
lovel=26
offset=4754
sample=SnareLine_SnaresOff_Sticks_Halfway_Dry_Buzz_Stroke_MP_D3_RR4.opus
</region>

<region>
hivel=75
key=A4
lovel=51
offset=4204
sample=SnareLine_SnaresOff_Sticks_Halfway_Dry_Buzz_Stroke_MF_D3_RR4.opus
</region>

<region>
hivel=127
key=A4
lovel=101
offset=3829
sample=SnareLine_SnaresOff_Sticks_Halfway_Dry_Buzz_Stroke_FF_D3_RR4.opus
</region>

<region>
hivel=100
key=A4
lovel=76
offset=3989
sample=SnareLine_SnaresOff_Sticks_Halfway_Dry_Buzz_Stroke_F_D3_RR4.opus
</region>

<region>
hivel=25
key=D5
lovel=0
offset=655
sample=SnareLine_SnaresOff_Sticks_Stick_Shot_P_D3_RR4.opus
</region>

<region>
hivel=50
key=D5
lovel=26
offset=1707
sample=SnareLine_SnaresOff_Sticks_Stick_Shot_MP_D3_RR4.opus
</region>

<region>
hivel=75
key=D5
lovel=51
offset=1787
sample=SnareLine_SnaresOff_Sticks_Stick_Shot_MF_D3_RR4.opus
</region>

<region>
hivel=127
key=D5
lovel=101
offset=1413
sample=SnareLine_SnaresOff_Sticks_Stick_Shot_FF_D3_RR4.opus
</region>

<region>
hivel=100
key=D5
lovel=76
offset=1770
sample=SnareLine_SnaresOff_Sticks_Stick_Shot_F_D3_RR4.opus
</region>

<region>
hivel=25
key=D#5
lovel=0
offset=3158
sample=SnareLine_SnaresOff_Sticks_Rim_Knock_P_D3_RR4.opus
</region>

<region>
hivel=50
key=D#5
lovel=26
offset=1587
sample=SnareLine_SnaresOff_Sticks_Rim_Knock_MP_D3_RR4.opus
</region>

<region>
hivel=75
key=D#5
lovel=51
offset=2789
sample=SnareLine_SnaresOff_Sticks_Rim_Knock_MF_D3_RR4.opus
</region>

<region>
hivel=127
key=D#5
lovel=101
offset=1286
sample=SnareLine_SnaresOff_Sticks_Rim_Knock_FF_D3_RR4.opus
</region>

<region>
hivel=100
key=D#5
lovel=76
offset=715
sample=SnareLine_SnaresOff_Sticks_Rim_Knock_F_D3_RR4.opus
</region>

<region>
hivel=25
key=E5
lovel=0
offset=1932
sample=SnareLine_SnaresOff_Sticks_Ping_Shot_P_D3_RR4.opus
</region>

<region>
hivel=50
key=E5
lovel=26
offset=1497
sample=SnareLine_SnaresOff_Sticks_Ping_Shot_MP_D3_RR4.opus
</region>

<region>
hivel=75
key=E5
lovel=51
offset=1539
sample=SnareLine_SnaresOff_Sticks_Ping_Shot_MF_D3_RR4.opus
</region>

<region>
hivel=127
key=E5
lovel=101
offset=1661
sample=SnareLine_SnaresOff_Sticks_Ping_Shot_FF_D3_RR4.opus
</region>

<region>
hivel=100
key=E5
lovel=76
offset=2396
sample=SnareLine_SnaresOff_Sticks_Ping_Shot_F_D3_RR4.opus
</region>

<region>
hivel=25
key=F5
lovel=0
offset=2972
sample=SnareLine_SnaresOff_Sticks_Shoulder_Shot_P_D3_RR4.opus
</region>

<region>
hivel=50
key=F5
lovel=26
offset=2889
sample=SnareLine_SnaresOff_Sticks_Shoulder_Shot_MP_D3_RR4.opus
</region>

<region>
hivel=75
key=F5
lovel=51
offset=2024
sample=SnareLine_SnaresOff_Sticks_Shoulder_Shot_MF_D3_RR4.opus
</region>

<region>
hivel=127
key=F5
lovel=101
offset=705
sample=SnareLine_SnaresOff_Sticks_Shoulder_Shot_FF_D3_RR4.opus
</region>

<region>
hivel=100
key=F5
lovel=76
offset=1505
sample=SnareLine_SnaresOff_Sticks_Shoulder_Shot_F_D3_RR4.opus
</region>

<region>
hivel=25
key=F#5
lovel=0
offset=1400
sample=SnareLine_SnaresOff_Sticks_Gok_Shot_P_D3_RR4.opus
</region>

<region>
hivel=50
key=F#5
lovel=26
offset=1957
sample=SnareLine_SnaresOff_Sticks_Gok_Shot_MP_D3_RR4.opus
</region>

<region>
hivel=75
key=F#5
lovel=51
offset=1860
sample=SnareLine_SnaresOff_Sticks_Gok_Shot_MF_D3_RR4.opus
</region>

<region>
hivel=127
key=F#5
lovel=101
offset=1046
sample=SnareLine_SnaresOff_Sticks_Gok_Shot_FF_D3_RR4.opus
</region>

<region>
hivel=100
key=F#5
lovel=76
offset=2006
sample=SnareLine_SnaresOff_Sticks_Gok_Shot_F_D3_RR4.opus
</region>
</group>

<group>
amp_veltrack=0
ampeg_release=0.05
color=blue
group_label=Rolls_RR1_101-127
loop_mode=loop_continuous
seq_length=2
seq_position=1
xfin_hicc1=127
xfin_locc1=101
xfout_hicc1=127
xfout_locc1=127

<region>
hivel=127
key=D2
loop_end=122262
loop_mode=loop_continuous
loop_start=25460
loop_xfade=11588
lovel=1
offset=719
sample=SnareLine_SnaresOff_Sticks_Buzz_Roll_FF_D3_RR1.opus
</region>

<region>
hivel=127
key=D#2
loop_end=122838
loop_mode=loop_continuous
loop_start=25579
loop_xfade=11643
lovel=1
offset=633
sample=SnareLine_SnaresOff_Sticks_Halfway_Buzz_Roll_FF_D3_RR1.opus
</region>

<region>
hivel=127
key=E2
loop_end=122788
loop_mode=loop_continuous
loop_start=25569
loop_xfade=11638
lovel=1
offset=775
sample=SnareLine_SnaresOff_Sticks_Edge_Buzz_Roll_FF_D3_RR1.opus
</region>
</group>

<group>
amp_veltrack=0
ampeg_release=0.05
color=blue
group_label=Rolls_RR1_0-25
loop_mode=loop_continuous
seq_length=2
seq_position=1
xfin_hicc1=25
xfout_hicc1=50
xfout_locc1=25

<region>
hivel=127
key=D2
loop_end=122328
loop_mode=loop_continuous
loop_start=25473
loop_xfade=11595
lovel=1
offset=863
sample=SnareLine_SnaresOff_Sticks_Buzz_Roll_P_D3_RR1.opus
</region>

<region>
hivel=127
key=D#2
loop_end=122098
loop_mode=loop_continuous
loop_start=25425
loop_xfade=11573
lovel=1
offset=864
sample=SnareLine_SnaresOff_Sticks_Halfway_Buzz_Roll_P_D3_RR1.opus
</region>

<region>
hivel=127
key=E2
loop_end=124271
loop_mode=loop_continuous
loop_start=25878
loop_xfade=11779
lovel=1
offset=865
sample=SnareLine_SnaresOff_Sticks_Edge_Buzz_Roll_P_D3_RR1.opus
</region>
</group>

<group>
amp_veltrack=0
ampeg_release=0.05
color=blue
group_label=Rolls_RR1_26-50
loop_mode=loop_continuous
seq_length=2
seq_position=1
xfin_hicc1=50
xfin_locc1=26
xfout_hicc1=74
xfout_locc1=50

<region>
hivel=127
key=D2
loop_end=122751
loop_mode=loop_continuous
loop_start=25561
loop_xfade=11635
lovel=1
offset=636
sample=SnareLine_SnaresOff_Sticks_Buzz_Roll_MP_D3_RR1.opus
</region>

<region>
hivel=127
key=D#2
loop_end=122946
loop_mode=loop_continuous
loop_start=25602
loop_xfade=11653
lovel=1
offset=774
sample=SnareLine_SnaresOff_Sticks_Halfway_Buzz_Roll_MP_D3_RR1.opus
</region>

<region>
hivel=127
key=E2
loop_end=122759
loop_mode=loop_continuous
loop_start=25563
loop_xfade=11636
lovel=1
offset=864
sample=SnareLine_SnaresOff_Sticks_Edge_Buzz_Roll_MP_D3_RR1.opus
</region>
</group>

<group>
amp_veltrack=0
ampeg_release=0.05
color=blue
group_label=Rolls_RR1_51-75
loop_mode=loop_continuous
seq_length=2
seq_position=1
xfin_hicc1=75
xfin_locc1=51
xfout_hicc1=99
xfout_locc1=75

<region>
hivel=127
key=D2
loop_end=123576
loop_mode=loop_continuous
loop_start=25733
loop_xfade=11713
lovel=1
offset=740
sample=SnareLine_SnaresOff_Sticks_Buzz_Roll_MF_D3_RR1.opus
</region>

<region>
hivel=127
key=D#2
loop_end=123546
loop_mode=loop_continuous
loop_start=25727
loop_xfade=11710
lovel=1
offset=726
sample=SnareLine_SnaresOff_Sticks_Halfway_Buzz_Roll_MF_D3_RR1.opus
</region>

<region>
hivel=127
key=E2
loop_end=123782
loop_mode=loop_continuous
loop_start=25776
loop_xfade=11733
lovel=1
offset=650
sample=SnareLine_SnaresOff_Sticks_Edge_Buzz_Roll_MF_D3_RR1.opus
</region>
</group>

<group>
amp_veltrack=0
ampeg_release=0.05
color=blue
group_label=Rolls_RR1_76-100
loop_mode=loop_continuous
seq_length=2
seq_position=1
xfin_hicc1=100
xfin_locc1=76
xfout_hicc1=124
xfout_locc1=100

<region>
hivel=127
key=D2
loop_end=123286
loop_mode=loop_continuous
loop_start=25673
loop_xfade=11685
lovel=1
offset=749
sample=SnareLine_SnaresOff_Sticks_Buzz_Roll_F_D3_RR1.opus
</region>

<region>
hivel=127
key=D#2
loop_end=124061
loop_mode=loop_continuous
loop_start=25834
loop_xfade=11759
lovel=1
offset=741
sample=SnareLine_SnaresOff_Sticks_Halfway_Buzz_Roll_F_D3_RR1.opus
</region>

<region>
hivel=127
key=E2
loop_end=123107
loop_mode=loop_continuous
loop_start=25635
loop_xfade=11669
lovel=1
offset=765
sample=SnareLine_SnaresOff_Sticks_Edge_Buzz_Roll_F_D3_RR1.opus
</region>
</group>

<group>
amp_veltrack=0
ampeg_release=0.05
color=blue
group_label=Rolls_RR2_101-127
loop_mode=loop_continuous
seq_length=2
seq_position=2
xfin_hicc1=127
xfin_locc1=101
xfout_hicc1=127
xfout_locc1=127

<region>
hivel=127
key=D2
loop_end=122747
loop_mode=loop_continuous
loop_start=25560
loop_xfade=11634
lovel=1
offset=714
sample=SnareLine_SnaresOff_Sticks_Buzz_Roll_FF_D3_RR2.opus
</region>

<region>
hivel=127
key=D#2
loop_end=122516
loop_mode=loop_continuous
loop_start=25512
loop_xfade=11613
lovel=1
offset=721
sample=SnareLine_SnaresOff_Sticks_Halfway_Buzz_Roll_FF_D3_RR2.opus
</region>

<region>
hivel=127
key=E2
loop_end=122489
loop_mode=loop_continuous
loop_start=25507
loop_xfade=11610
lovel=1
offset=729
sample=SnareLine_SnaresOff_Sticks_Edge_Buzz_Roll_FF_D3_RR2.opus
</region>
</group>

<group>
amp_veltrack=0
ampeg_release=0.05
color=blue
group_label=Rolls_RR2_0-25
loop_mode=loop_continuous
seq_length=2
seq_position=2
xfin_hicc1=25
xfout_hicc1=50
xfout_locc1=25

<region>
hivel=127
key=D2
loop_end=121751
loop_mode=loop_continuous
loop_start=25353
loop_xfade=11540
lovel=1
offset=835
sample=SnareLine_SnaresOff_Sticks_Buzz_Roll_P_D3_RR2.opus
</region>

<region>
hivel=127
key=D#2
loop_end=122458
loop_mode=loop_continuous
loop_start=25500
loop_xfade=11607
lovel=1
offset=862
sample=SnareLine_SnaresOff_Sticks_Halfway_Buzz_Roll_P_D3_RR2.opus
</region>

<region>
hivel=127
key=E2
loop_end=123312
loop_mode=loop_continuous
loop_start=25678
loop_xfade=11688
lovel=1
offset=864
sample=SnareLine_SnaresOff_Sticks_Edge_Buzz_Roll_P_D3_RR2.opus
</region>
</group>

<group>
amp_veltrack=0
ampeg_release=0.05
color=blue
group_label=Rolls_RR2_26-50
loop_mode=loop_continuous
seq_length=2
seq_position=2
xfin_hicc1=50
xfin_locc1=26
xfout_hicc1=74
xfout_locc1=50

<region>
hivel=127
key=D2
loop_end=122296
loop_mode=loop_continuous
loop_start=25467
loop_xfade=11592
lovel=1
offset=862
sample=SnareLine_SnaresOff_Sticks_Buzz_Roll_MP_D3_RR2.opus
</region>

<region>
hivel=127
key=D#2
loop_end=122812
loop_mode=loop_continuous
loop_start=25574
loop_xfade=11641
lovel=1
offset=862
sample=SnareLine_SnaresOff_Sticks_Halfway_Buzz_Roll_MP_D3_RR2.opus
</region>

<region>
hivel=127
key=E2
loop_end=122492
loop_mode=loop_continuous
loop_start=25507
loop_xfade=11610
lovel=1
offset=864
sample=SnareLine_SnaresOff_Sticks_Edge_Buzz_Roll_MP_D3_RR2.opus
</region>
</group>

<group>
amp_veltrack=0
ampeg_release=0.05
color=blue
group_label=Rolls_RR2_51-75
loop_mode=loop_continuous
seq_length=2
seq_position=2
xfin_hicc1=75
xfin_locc1=51
xfout_hicc1=99
xfout_locc1=75

<region>
hivel=127
key=D2
loop_end=122883
loop_mode=loop_continuous
loop_start=25589
loop_xfade=11647
lovel=1
offset=725
sample=SnareLine_SnaresOff_Sticks_Buzz_Roll_MF_D3_RR2.opus
</region>

<region>
hivel=127
key=D#2
loop_end=123030
loop_mode=loop_continuous
loop_start=25619
loop_xfade=11661
lovel=1
offset=652
sample=SnareLine_SnaresOff_Sticks_Halfway_Buzz_Roll_MF_D3_RR2.opus
</region>

<region>
hivel=127
key=E2
loop_end=123134
loop_mode=loop_continuous
loop_start=25641
loop_xfade=11671
lovel=1
offset=835
sample=SnareLine_SnaresOff_Sticks_Edge_Buzz_Roll_MF_D3_RR2.opus
</region>
</group>

<group>
amp_veltrack=0
ampeg_release=0.05
color=blue
group_label=Rolls_RR2_76-100
loop_mode=loop_continuous
seq_length=2
seq_position=2
xfin_hicc1=100
xfin_locc1=76
xfout_hicc1=124
xfout_locc1=100

<region>
hivel=127
key=D2
loop_end=122853
loop_mode=loop_continuous
loop_start=25583
loop_xfade=11644
lovel=1
offset=709
sample=SnareLine_SnaresOff_Sticks_Buzz_Roll_F_D3_RR2.opus
</region>

<region>
hivel=127
key=D#2
loop_end=123235
loop_mode=loop_continuous
loop_start=25662
loop_xfade=11681
lovel=1
offset=720
sample=SnareLine_SnaresOff_Sticks_Halfway_Buzz_Roll_F_D3_RR2.opus
</region>

<region>
hivel=127
key=E2
loop_end=122867
loop_mode=loop_continuous
loop_start=25586
loop_xfade=11646
lovel=1
offset=677
sample=SnareLine_SnaresOff_Sticks_Edge_Buzz_Roll_F_D3_RR2.opus
</region>
</group>

<group>
amp_veltrack=0
ampeg_attack=0.01
ampeg_release=1.5
color=blue
group_label=Rolls_RR1_RELEASE_76-100
offset=128000
seq_length=2
seq_position=1
trigger=release
xfin_hicc1=100
xfin_locc1=76
xfout_hicc1=124
xfout_locc1=100

<region>
hivel=127
key=D2
lovel=1
sample=SnareLine_SnaresOff_Sticks_Buzz_Roll_F_D3_RR1.opus
</region>

<region>
hivel=127
key=D#2
lovel=1
sample=SnareLine_SnaresOff_Sticks_Halfway_Buzz_Roll_F_D3_RR1.opus
</region>

<region>
hivel=127
key=E2
lovel=1
sample=SnareLine_SnaresOff_Sticks_Edge_Buzz_Roll_F_D3_RR1.opus
</region>
</group>

<group>
amp_veltrack=0
ampeg_attack=0.01
ampeg_release=1.5
color=blue
group_label=Rolls_RR1_RELEASE_0-25
offset=128000
seq_length=2
seq_position=1
trigger=release
xfin_hicc1=25
xfout_hicc1=50
xfout_locc1=25

<region>
hivel=127
key=D2
lovel=1
sample=SnareLine_SnaresOff_Sticks_Buzz_Roll_P_D3_RR1.opus
</region>

<region>
hivel=127
key=D#2
lovel=1
sample=SnareLine_SnaresOff_Sticks_Halfway_Buzz_Roll_P_D3_RR1.opus
</region>

<region>
hivel=127
key=E2
lovel=1
sample=SnareLine_SnaresOff_Sticks_Edge_Buzz_Roll_P_D3_RR1.opus
</region>
</group>

<group>
amp_veltrack=0
ampeg_attack=0.01
ampeg_release=1.5
color=blue
group_label=Rolls_RR1_RELEASE_101-127
offset=128000
seq_length=2
seq_position=1
trigger=release
xfin_hicc1=127
xfin_locc1=101
xfout_hicc1=127
xfout_locc1=127

<region>
hivel=127
key=D2
lovel=1
sample=SnareLine_SnaresOff_Sticks_Buzz_Roll_FF_D3_RR1.opus
</region>

<region>
hivel=127
key=D#2
lovel=1
sample=SnareLine_SnaresOff_Sticks_Halfway_Buzz_Roll_FF_D3_RR1.opus
</region>

<region>
hivel=127
key=E2
lovel=1
sample=SnareLine_SnaresOff_Sticks_Edge_Buzz_Roll_FF_D3_RR1.opus
</region>
</group>

<group>
amp_veltrack=0
ampeg_attack=0.01
ampeg_release=1.5
color=blue
group_label=Rolls_RR1_RELEASE_26-50
offset=128000
seq_length=2
seq_position=1
trigger=release
xfin_hicc1=50
xfin_locc1=26
xfout_hicc1=74
xfout_locc1=50

<region>
hivel=127
key=D2
lovel=1
sample=SnareLine_SnaresOff_Sticks_Buzz_Roll_MP_D3_RR1.opus
</region>

<region>
hivel=127
key=D#2
lovel=1
sample=SnareLine_SnaresOff_Sticks_Halfway_Buzz_Roll_MP_D3_RR1.opus
</region>

<region>
hivel=127
key=E2
lovel=1
sample=SnareLine_SnaresOff_Sticks_Edge_Buzz_Roll_MP_D3_RR1.opus
</region>
</group>

<group>
amp_veltrack=0
ampeg_attack=0.01
ampeg_release=1.5
color=blue
group_label=Rolls_RR1_RELEASE_51-75
offset=128000
seq_length=2
seq_position=1
trigger=release
xfin_hicc1=75
xfin_locc1=51
xfout_hicc1=99
xfout_locc1=75

<region>
hivel=127
key=D2
lovel=1
sample=SnareLine_SnaresOff_Sticks_Buzz_Roll_MF_D3_RR1.opus
</region>

<region>
hivel=127
key=D#2
lovel=1
sample=SnareLine_SnaresOff_Sticks_Halfway_Buzz_Roll_MF_D3_RR1.opus
</region>

<region>
hivel=127
key=E2
lovel=1
sample=SnareLine_SnaresOff_Sticks_Edge_Buzz_Roll_MF_D3_RR1.opus
</region>
</group>

<group>
amp_veltrack=0
ampeg_attack=0.01
ampeg_release=1.5
color=blue
group_label=Rolls_RR2_RELEASE_76-100
offset=128000
seq_length=2
seq_position=2
trigger=release
xfin_hicc1=100
xfin_locc1=76
xfout_hicc1=124
xfout_locc1=100

<region>
hivel=127
key=D2
lovel=1
sample=SnareLine_SnaresOff_Sticks_Buzz_Roll_F_D3_RR2.opus
</region>

<region>
hivel=127
key=D#2
lovel=1
sample=SnareLine_SnaresOff_Sticks_Halfway_Buzz_Roll_F_D3_RR2.opus
</region>

<region>
hivel=127
key=E2
lovel=1
sample=SnareLine_SnaresOff_Sticks_Edge_Buzz_Roll_F_D3_RR2.opus
</region>
</group>

<group>
amp_veltrack=0
ampeg_attack=0.01
ampeg_release=1.5
color=blue
group_label=Rolls_RR2_RELEASE_0-25
offset=128000
seq_length=2
seq_position=2
trigger=release
xfin_hicc1=25
xfout_hicc1=50
xfout_locc1=25

<region>
hivel=127
key=D2
lovel=1
sample=SnareLine_SnaresOff_Sticks_Buzz_Roll_P_D3_RR2.opus
</region>

<region>
hivel=127
key=D#2
lovel=1
sample=SnareLine_SnaresOff_Sticks_Halfway_Buzz_Roll_P_D3_RR2.opus
</region>

<region>
hivel=127
key=E2
lovel=1
sample=SnareLine_SnaresOff_Sticks_Edge_Buzz_Roll_P_D3_RR2.opus
</region>
</group>

<group>
amp_veltrack=0
ampeg_attack=0.01
ampeg_release=1.5
color=blue
group_label=Rolls_RR2_RELEASE_101-127
offset=128000
seq_length=2
seq_position=2
trigger=release
xfin_hicc1=127
xfin_locc1=101
xfout_hicc1=127
xfout_locc1=127

<region>
hivel=127
key=D2
lovel=1
sample=SnareLine_SnaresOff_Sticks_Buzz_Roll_FF_D3_RR2.opus
</region>

<region>
hivel=127
key=D#2
lovel=1
sample=SnareLine_SnaresOff_Sticks_Halfway_Buzz_Roll_FF_D3_RR2.opus
</region>

<region>
hivel=127
key=E2
lovel=1
sample=SnareLine_SnaresOff_Sticks_Edge_Buzz_Roll_FF_D3_RR2.opus
</region>
</group>

<group>
amp_veltrack=0
ampeg_attack=0.01
ampeg_release=1.5
color=blue
group_label=Rolls_RR2_RELEASE_26-50
offset=128000
seq_length=2
seq_position=2
trigger=release
xfin_hicc1=50
xfin_locc1=26
xfout_hicc1=74
xfout_locc1=50

<region>
hivel=127
key=D2
lovel=1
sample=SnareLine_SnaresOff_Sticks_Buzz_Roll_MP_D3_RR2.opus
</region>

<region>
hivel=127
key=D#2
lovel=1
sample=SnareLine_SnaresOff_Sticks_Halfway_Buzz_Roll_MP_D3_RR2.opus
</region>

<region>
hivel=127
key=E2
lovel=1
sample=SnareLine_SnaresOff_Sticks_Edge_Buzz_Roll_MP_D3_RR2.opus
</region>
</group>

<group>
amp_veltrack=0
ampeg_attack=0.01
ampeg_release=1.5
color=blue
group_label=Rolls_RR2_RELEASE_51-75
offset=128000
seq_length=2
seq_position=2
trigger=release
xfin_hicc1=75
xfin_locc1=51
xfout_hicc1=99
xfout_locc1=75

<region>
hivel=127
key=D2
lovel=1
sample=SnareLine_SnaresOff_Sticks_Buzz_Roll_MF_D3_RR2.opus
</region>

<region>
hivel=127
key=D#2
lovel=1
sample=SnareLine_SnaresOff_Sticks_Halfway_Buzz_Roll_MF_D3_RR2.opus
</region>

<region>
hivel=127
key=E2
lovel=1
sample=SnareLine_SnaresOff_Sticks_Edge_Buzz_Roll_MF_D3_RR2.opus
</region>
</group>